<svg width="60" height="60" viewBox="0 0 60 60" fill="none" xmlns="http://www.w3.org/2000/svg">
<path d="M34.7637 32.4731L32.4794 34.758L33.9978 38.4274L38.4323 33.992L34.7637 32.4731ZM31.6327 35.1075H28.3943L26.8757 38.7769H33.1377L31.6327 35.1075ZM35.1265 28.3871V31.6129L38.7816 33.1317V26.8683L35.1265 28.3871ZM27.5341 34.758L25.2496 32.4731L21.5946 33.992L26.029 38.4274L27.5341 34.758ZM33.9978 21.5725L32.4794 25.242L34.7637 27.5269L38.4323 26.008L33.9978 21.5725ZM28.3943 24.879H31.6327L33.1377 21.223H26.8757L28.3943 24.879ZM24.9003 31.6129V28.3871L21.2453 26.8683V33.1317L24.9003 31.6129ZM25.2496 27.5269L27.5341 25.242L26.029 21.5725L21.5946 26.008L25.2496 27.5269ZM27.6685 18.8172H49.8141C50.58 18.8172 51.3461 19.1129 51.9374 19.7043C52.5285 20.2957 52.8242 21.0618 52.8242 21.828C52.8242 22.594 52.5285 23.3736 51.9374 23.965L57.0168 29.0457C59.0056 27.0564 60 24.4354 60 21.828C60 19.2204 59.0056 16.6129 57.0168 14.6236C55.028 12.6344 52.4211 11.6398 49.8141 11.6398H34.8444L27.6685 18.8172ZM36.2553 20.4301L51.9103 36.1021C52.4613 36.6398 52.7973 37.3924 52.7973 38.2258C52.7973 39.0591 52.4613 39.8118 51.9103 40.3629C51.3729 40.9005 50.6204 41.2365 49.7873 41.2365V48.4274C52.5957 48.4274 55.149 47.285 56.99 45.4436C58.8444 43.5886 59.9732 41.0484 59.9732 38.2258C59.9732 35.4166 58.8309 32.8629 56.99 31.008L46.4143 20.4301H36.2553ZM41.187 27.6479V49.7983C41.187 50.5645 40.8913 51.3441 40.3 51.9355C39.7089 52.5135 38.9428 52.8092 38.1769 52.8092C37.411 52.8092 36.6317 52.5135 36.0537 51.9355L30.9607 57.0162C32.9631 59.0053 35.57 60 38.1769 60C40.784 60 43.3908 59.0053 45.393 57.0162C47.3818 55.0269 48.3762 52.4059 48.3762 49.7983L48.3629 34.8387L41.187 27.6479ZM39.5745 36.2365L23.9193 51.9086C23.3684 52.4463 22.6159 52.7823 21.7827 52.7823C20.9496 52.7823 20.2105 52.4463 19.6596 51.9086C19.1087 51.3576 18.7726 50.6049 18.7726 49.7715H11.5834C11.5834 52.5941 12.7256 55.1345 14.5801 56.9892C16.4211 58.8306 18.9743 59.9732 21.7827 59.9732C24.6047 59.9732 27.1444 58.8306 28.9989 56.9892L39.5745 46.3979V36.2365ZM32.3583 41.1693H10.2128C9.44681 41.1693 8.66742 40.8736 8.08959 40.2957C7.49832 39.7043 7.20269 38.9382 7.20269 38.1586C7.20269 37.3925 7.49832 36.6264 8.08959 36.035L3.01008 30.9543C1.00784 32.9436 0.0134379 35.5511 0.0134379 38.1586C0.0134379 40.7661 1.00784 43.3871 3.01008 45.3764C4.99889 47.3657 7.60582 48.3602 10.2128 48.3602H25.1826L32.3583 41.1693ZM23.7312 39.4623L8.07615 23.8038C7.5252 23.2527 7.18925 22.5 7.18925 21.6666C7.18925 20.8333 7.5252 20.0807 8.07615 19.543C8.61366 18.9919 9.36618 18.6559 10.1993 18.6559V11.4785C7.39082 11.4785 4.83762 12.621 2.99664 14.4624C1.14222 16.3038 0 18.8575 0 21.6666C0 24.4893 1.14222 27.0296 2.99664 28.8844L13.5722 39.4623H23.7312ZM18.8399 32.3386V10.1882C18.8399 9.42204 19.1355 8.65592 19.7268 8.06451C20.3046 7.47312 21.084 7.19086 21.8499 7.17742C22.6159 7.17742 23.3818 7.47312 23.9731 8.06451L29.0661 2.98387C27.0639 0.994623 24.4569 0 21.8499 0C19.243 0 16.6361 0.994623 14.6338 2.98387C12.645 4.97311 11.6506 7.58064 11.6506 10.2016V25.1613L18.8399 32.3386ZM20.4524 23.75L36.1075 8.0914C36.6585 7.54032 37.411 7.21774 38.2441 7.21774C39.0772 7.21774 39.8163 7.55376 40.3673 8.0914C40.9182 8.64248 41.2542 9.38172 41.2542 10.2285H48.4434C48.4434 7.40592 47.2878 4.85215 45.4468 3.01076C43.6057 1.16935 41.0526 0.0268817 38.2441 0.0268817C35.4222 0.0268817 32.8691 1.16935 31.028 3.01076L20.4524 13.5887V23.75ZM31.8074 34.3279L34.3336 31.7877V28.1989L31.8074 25.6721H28.2195L25.6797 28.1989V31.7877L28.2195 34.3279H31.8074ZM26.0561 39.5565L20.4524 33.9651V26.0349L26.0561 20.4301H33.971L39.5745 26.0349V33.9651L33.971 39.5565H26.0561Z" fill="#0061AB"/>
</svg>
