<svg width="60" height="60" viewBox="0 0 60 60" fill="none" xmlns="http://www.w3.org/2000/svg">
<path d="M59.6471 29.3772C58.7903 27.2079 56.6746 26.0265 54.385 26.4399L49.68 27.2872C48.8988 27.4278 48.3804 28.1754 48.5196 28.9566C48.66 29.7378 49.4064 30.2569 50.1864 30.1176L54.8914 29.2702C56.011 29.0683 56.7022 29.739 56.9758 30.4324C57.2506 31.1271 57.2026 32.0898 56.2486 32.7088L49.3428 37.1905C48.7008 37.6063 47.9196 37.6351 47.2512 37.2711C46.5816 36.9069 46.1808 36.2326 46.1808 35.4694V20.9473C46.1808 20.1529 45.5388 19.5088 44.7456 19.5088C43.9524 19.5088 43.3104 20.1529 43.3104 20.9473V35.4718C43.3104 37.3059 44.2704 38.9236 45.8796 39.7998C46.6272 40.206 47.4324 40.4091 48.234 40.4091C49.1592 40.4091 50.0808 40.141 50.904 39.6063L57.8099 35.1244C59.7659 33.8553 60.5039 31.5466 59.6471 29.3772ZM35.3556 26.4411L30.6504 27.2884C29.8704 27.429 29.352 28.1766 29.4912 28.9578C29.6316 29.739 30.378 30.2581 31.158 30.1188L35.8632 29.2714C36.984 29.0695 37.674 29.7402 37.9488 30.4336C38.2224 31.1283 38.1756 32.091 37.2204 32.71L30.3144 37.1917C29.6736 37.6075 28.8924 37.6363 28.2228 37.2723C27.5532 36.9081 27.1536 36.2338 27.1536 35.4706V24.4375C27.1536 22.6023 26.1936 20.9847 24.5844 20.1085C22.9752 19.2336 21.0972 19.3057 19.56 20.302L2.18892 31.5742C0.234134 32.8422 -0.503862 35.151 0.352933 37.3203C1.20853 39.4884 3.32292 40.6687 5.6149 40.2564L20.7816 37.5258C21.5616 37.3852 22.0812 36.6376 21.9408 35.8564C21.8004 35.0752 21.054 34.5549 20.274 34.6954L5.10732 37.426C3.98652 37.6279 3.29652 36.9573 3.02292 36.2638C2.74812 35.5692 2.79492 34.6065 3.75012 33.9864L21.1176 22.7166C21.7572 22.3018 22.5396 22.2718 23.2092 22.636C23.8788 23.0014 24.2784 23.6757 24.2784 24.4387V35.4718C24.2784 37.3059 25.2384 38.9236 26.8476 39.7998C27.5952 40.206 28.4016 40.4091 29.2032 40.4091C30.1284 40.4091 31.0488 40.141 31.872 39.6063L38.7792 35.1244C40.7328 33.8565 41.4708 31.5478 40.6152 29.3784C39.762 27.2079 37.6452 26.0289 35.3556 26.4411Z" fill="#009C32"/>
</svg>
