<svg width="60" height="60" viewBox="0 0 60 60" fill="none" xmlns="http://www.w3.org/2000/svg">
<path d="M60 0H0V60H60V0Z" fill="#9D2235"/>
<path d="M34.3497 29.7V30.3C37.3497 32.4 40.6497 33.9 43.9497 34.05C45.7497 34.05 50.8497 33.6 50.8497 30.45C50.8497 27.45 46.9497 26.55 45.1497 26.4C41.5497 25.95 37.0497 27 34.3497 29.7ZM48.4497 30.15C48.4497 31.95 44.0997 31.65 43.1997 31.65C41.2497 31.5 39.2997 30.9 37.4997 29.85V29.7C39.4497 28.65 41.5497 28.2 43.9497 28.35C45.1497 28.35 48.4497 28.8 48.4497 30.15ZM15.1497 26.25C13.3497 26.4 9.44971 27.45 9.44971 30.3C9.44971 33.45 14.5497 34.05 16.3497 33.9C19.6497 33.75 22.9497 32.4 25.9497 30.15V29.55C22.9497 27 18.4497 25.95 15.1497 26.25ZM22.4997 29.85C20.6997 30.9 18.7497 31.35 16.7997 31.65C15.7497 31.8 11.6997 31.8 11.5497 30.15C11.5497 28.65 15.1497 28.35 16.0497 28.2C18.2997 28.2 20.3997 28.8 22.4997 29.85ZM30.1497 31.2H29.6997C28.1997 32.55 27.1497 34.8 26.9997 37.05C26.9997 39.15 27.5997 41.55 29.5497 42.15H30.2997C32.2497 41.55 32.9997 39.15 32.8497 37.05C32.6997 34.8 31.7997 32.7 30.1497 31.2ZM30.5997 38.85L30.1497 39.45H29.9997L29.3997 38.85C29.2497 38.4 29.2497 38.1 28.9497 37.65C28.9497 37.05 28.9497 36.6 29.0997 36.15C29.2497 35.55 29.5497 34.95 29.8497 34.35C30.2997 34.95 30.4497 35.55 30.5997 36.15C30.7497 36.75 30.7497 37.2 30.7497 37.65C30.7497 38.4 30.7497 38.55 30.5997 38.85ZM29.9997 24.6H30.1497C31.9497 21.9 32.8497 18.45 33.2997 15.15C32.0997 15.15 31.1997 15 29.9997 15C28.7997 15 27.8997 15 26.6997 15.15C27.1497 18.45 28.0497 21.75 29.8497 24.6H29.9997ZM29.9997 17.4H31.0497C30.8997 18.6 30.5997 19.95 29.9997 21H29.8497C29.2497 19.95 29.0997 18.6 28.7997 17.4H29.9997Z" fill="white"/>
<path d="M31.7999 26.7001L32.8499 26.5501C36.4499 25.0501 39.8999 24.1501 43.4999 24.0001C48.4499 24.0001 51.1499 25.3501 53.5499 29.2501L53.9999 29.1001C53.5499 20.2501 43.7999 17.1001 36.1499 15.6001C35.5499 19.3501 34.6499 22.6501 32.5499 25.8001C32.3999 25.8001 31.7999 26.7001 31.7999 26.7001ZM37.1999 18.3001C40.1999 18.9001 43.7999 19.8001 46.3499 21.9001V22.0501C43.0499 21.4501 39.2999 22.0501 36.1499 22.8001V22.6501C36.5999 21.1501 37.0499 19.6501 37.1999 18.3001ZM16.6499 24.0001C20.3999 24.0001 23.8499 25.0501 27.4499 26.5501L28.1999 27.0001L28.3499 26.8501L27.7499 25.8001C25.9499 22.6501 24.7499 19.3501 24.1499 15.6001C17.2499 16.6501 6.2999 20.5501 6.2999 29.1001L6.7499 29.2501C8.3999 25.3501 12.2999 24.0001 16.6499 24.0001ZM22.7999 18.3001C22.9499 19.8001 23.3999 21.3001 23.9999 22.6501L23.8499 22.8001C20.6999 22.0501 16.7999 21.4501 13.6499 22.0501V21.9001C16.0499 19.9501 19.7999 18.9001 22.7999 18.3001ZM44.0999 36.3001C40.9499 36.3001 38.2499 35.1001 35.2499 33.6001L35.0999 34.0501C36.5999 38.1001 36.2999 42.9001 32.0999 44.4001L32.2499 45.0001C38.3999 44.8501 51.8999 41.7001 53.5499 32.4001L52.9499 31.9501C50.9999 34.9501 47.9999 36.3001 44.0999 36.3001ZM37.1999 42.0001C37.3499 41.2501 37.6499 40.5001 37.6499 39.6001V37.2001C38.9999 37.8001 40.6499 38.2501 41.9999 38.4001C43.3499 38.5501 45.5999 38.5501 46.6499 38.4001V38.5501C43.9499 40.5001 40.3499 41.4001 37.1999 42.0001ZM25.0499 34.0501L24.5999 33.4501C21.8999 34.9501 18.8999 36.1501 15.7499 36.1501C12.1499 36.3001 9.2999 34.9501 6.7499 31.8001L6.1499 32.2501C8.0999 41.8501 21.4499 44.8501 27.4499 45.0001L27.5999 44.4001C23.8499 42.9001 23.5499 38.1001 25.0499 34.0501ZM13.3499 38.7001C14.6999 38.7001 16.9499 38.7001 17.9999 38.5501C19.4999 38.4001 20.9999 37.9501 22.3499 37.3501V39.7501C22.3499 40.5001 22.4999 41.2501 22.7999 42.1501C19.7999 41.4001 16.0499 40.5001 13.3499 38.7001Z" fill="white"/>
</svg>
