<svg width="60" height="60" viewBox="0 0 60 60" fill="none" xmlns="http://www.w3.org/2000/svg">
<path d="M47.6241 40.3671C47.7985 41.5378 47.4303 42.0224 47.0582 42.0224C46.655 42.0224 46.1433 41.5494 45.5463 40.6113C44.9531 39.6886 44.7399 38.6304 45.0306 38.0914C45.2244 37.7388 45.6315 37.5837 46.1433 37.7775C47.1318 38.1535 47.5194 39.6693 47.6241 40.3671ZM42.1464 42.9179C43.3328 43.922 43.6932 45.1159 43.0652 45.9571C42.7163 46.4184 42.1503 46.6743 41.4718 46.6743C40.8051 46.6743 40.1268 46.4262 39.6576 46.0154C38.58 45.0734 38.2621 43.542 38.9676 42.6737C39.2428 42.3326 39.6886 42.1464 40.2276 42.1464C40.8787 42.1464 41.5611 42.4216 42.1464 42.9179ZM40.1616 52.6056C45.2748 52.6056 50.8223 54.3577 56.9628 59.8005C57.5792 60.3471 58.3971 59.6687 57.8622 58.9903C51.8263 51.3689 46.2439 49.9191 40.6771 48.694C33.8699 47.1937 30.3654 43.3637 27.9232 39.1538C27.4386 38.3163 27.2215 38.4636 27.175 39.5414C27.1207 40.8555 27.2137 42.6 27.5084 44.3095C27.2331 44.3213 26.9578 44.3174 26.6789 44.3174C16.937 44.3174 9.04025 36.4207 9.04025 26.6789C9.04025 16.937 16.937 9.04025 26.6789 9.04025C36.4207 9.04025 44.3174 16.937 44.3174 26.6789C44.3174 27.3727 44.2824 28.0588 44.2048 28.7295C42.9179 28.4968 40.3825 28.4699 38.6032 28.6248C37.9326 28.683 38.0295 28.9932 38.5335 29.0862C44.3638 30.1406 48.3684 33.7536 49.2872 40.3089C49.3065 40.4601 49.5042 40.5066 49.5817 40.3749C51.9814 36.3703 53.3576 31.6873 53.3576 26.6789C53.3654 11.9477 41.4177 0 26.6826 0C11.9477 0 0 11.9477 0 26.6826C0 41.4177 11.9477 53.3653 26.6826 53.3653C30.5903 53.3653 34.4708 52.6056 40.1616 52.6056Z" fill="#FF8C00"/>
</svg>
