<svg width="60" height="60" viewBox="0 0 60 60" fill="none" xmlns="http://www.w3.org/2000/svg">
<path d="M1.97998 1.97998H57.96V57.9599H1.97998V1.97998Z" fill="#FFED00"/>
<path d="M60 60H0V0H60V60ZM58.02 1.98H1.98V57.96H57.96V1.98H58.02Z" fill="#2B2A2F"/>
<path d="M30 36.8398L12.78 53.9998L6.00002 47.2198L23.16 29.9998L19.5 26.3998V19.3198L17.1 16.7998V22.9798L15 25.1398L6.18002 16.4998L4.02002 18.5998C4.058 14.7277 5.60837 11.0241 8.34002 8.27968C12.66 4.13968 17.34 5.99968 18.84 7.61968L27.6 16.3798L25.5 18.5998L30 23.0998L34.62 18.4798L32.4 16.3198L41.1 7.49968C42.5867 6.20997 44.5208 5.55636 46.4852 5.67982C48.4494 5.8033 50.2865 6.69396 51.6 8.15968C54.339 10.9043 55.9088 14.6029 55.98 18.4798L53.82 16.3198L45.12 25.1998L42.96 23.0398V16.7998L40.5 19.3198V26.3998L36.84 29.9998L54 47.2198L47.28 53.9998L30 36.8398Z" fill="#2B2A2F"/>
</svg>
