<svg width="60" height="60" viewBox="0 0 60 60" fill="none" xmlns="http://www.w3.org/2000/svg">
<path d="M60 52.4781C60 56.5889 56.6618 60 52.533 60H7.46706C3.33822 59.9126 0 56.5889 0 52.4781V7.52187C0 3.41107 3.33822 0 7.46706 0H52.4451C56.574 0 59.9121 3.41107 59.9121 7.52187V52.4781H60Z" fill="#B49F64"/>
<path d="M29.9565 26.239C32.0649 26.239 33.734 27.9008 33.734 29.9999C33.734 32.099 32.0649 33.7609 29.9565 33.7609C27.8481 33.7609 26.1791 32.099 26.1791 29.9999C26.267 27.9008 27.936 26.239 29.9565 26.239ZM35.5788 18.7172C33.4704 18.7172 31.8014 20.3789 31.8014 22.478C31.8014 24.5773 33.4704 26.239 35.5788 26.239C37.6871 26.239 39.3563 24.5773 39.3563 22.478C39.3563 20.3789 37.6871 18.7172 35.5788 18.7172ZM24.3342 18.7172C22.226 18.7172 20.5568 20.3789 20.5568 22.478C20.5568 24.5773 22.226 26.239 24.3342 26.239C26.4426 26.239 28.1117 24.5773 28.1117 22.478C28.1117 20.3789 26.4426 18.7172 24.3342 18.7172ZM41.201 11.1953C43.3094 11.1953 44.9784 12.8571 44.9784 14.9562C44.9784 17.0554 43.3094 18.7172 41.201 18.7172C39.0927 18.7172 37.4235 17.0554 37.4235 14.9562C37.5114 12.8571 39.1805 11.1953 41.201 11.1953ZM29.9565 11.1953C32.0649 11.1953 33.734 12.8571 33.734 14.9562C33.734 17.0554 32.0649 18.7172 29.9565 18.7172C27.8481 18.7172 26.1791 17.0554 26.1791 14.9562C26.267 12.8571 27.936 11.1953 29.9565 11.1953ZM22.4895 14.9562C22.4895 17.0554 20.8203 18.7172 18.7121 18.7172C16.6037 18.7172 14.9346 17.0554 14.9346 14.9562C14.9346 12.8571 16.6037 11.1953 18.7121 11.1953C20.8203 11.1953 22.4895 12.8571 22.4895 14.9562ZM35.5788 33.6734C33.4704 33.6734 31.8014 35.3353 31.8014 37.4344C31.8014 39.5335 33.4704 41.1953 35.5788 41.1953C37.6871 41.1953 39.3563 39.5335 39.3563 37.4344C39.3563 35.4227 37.6871 33.6734 35.5788 33.6734ZM24.3342 33.6734C22.226 33.6734 20.5568 35.3353 20.5568 37.4344C20.5568 39.5335 22.226 41.1953 24.3342 41.1953C26.4426 41.1953 28.1117 39.5335 28.1117 37.4344C28.1117 35.4227 26.4426 33.6734 24.3342 33.6734ZM41.201 41.1953C43.3094 41.1953 44.9784 42.8572 44.9784 44.9563C44.9784 46.9679 43.3094 48.7172 41.201 48.7172C39.0927 48.7172 37.4235 46.9679 37.4235 44.9563C37.5114 42.8572 39.1805 41.1953 41.201 41.1953ZM29.9565 41.1953C32.0649 41.1953 33.734 42.8572 33.734 44.9563C33.734 46.9679 32.0649 48.7172 29.9565 48.7172C27.8481 48.7172 26.1791 46.9679 26.1791 44.9563C26.267 42.8572 27.936 41.1953 29.9565 41.1953ZM18.7121 41.1953C20.8203 41.1953 22.4895 42.8572 22.4895 44.9563C22.4895 46.9679 20.8203 48.7172 18.7121 48.7172C16.6037 48.7172 14.9346 46.9679 14.9346 44.9563C15.0224 42.8572 16.6916 41.1953 18.7121 41.1953Z" fill="white"/>
</svg>
