<svg width="60" height="60" viewBox="0 0 60 60" fill="none" xmlns="http://www.w3.org/2000/svg">
<path d="M30.0052 49.9205C46.5666 49.9205 60 41.0991 60 30.2102C60 19.3214 46.5666 10.5 30.0052 10.5C13.4441 10.5 0 19.3214 0 30.2102C0 41.0991 13.4335 49.9205 30.0052 49.9205ZM54.8259 24.453C55.7775 26.0741 56.3637 27.8832 56.5436 29.7543C57.0101 38.7029 46.0895 46.5699 32.1576 47.291C23.3787 47.7363 15.501 45.2765 10.7616 41.1414C16.5537 44.1248 23.048 45.4772 29.5494 45.0539C44.1068 44.2799 55.547 36.3173 55.0698 27.252C55.0137 26.5986 54.8068 25.9673 54.4654 25.4073C49.7791 25.4073 40.6821 25.3436 36.0806 25.4073C35.6886 26.5892 35.3804 27.7974 35.1582 29.0228C36.897 29.0228 46.5028 29.2347 46.5028 30.8676C46.5028 33.1154 35.964 39.3497 32.7195 39.3497C30.5355 39.3497 30.1962 38.7347 30.1962 37.4835C30.4538 34.9745 30.9944 32.5025 31.8078 30.1148L28.4892 29.9876C25.1706 35.1086 21.8096 37.2503 13.2002 39.2861C11.7218 39.6608 10.2077 39.8775 8.68352 39.9327C7.25004 38.9462 6.04586 37.6625 5.15286 36.1689C4.16484 34.4757 3.57732 32.579 3.43524 30.6237C2.95812 21.6752 13.8894 13.8398 27.8211 13.1082C36.6002 12.6417 44.4778 15.1227 49.2384 19.2365C43.449 16.2702 36.9624 14.9325 30.4718 15.3666C16.2644 16.1193 5.02563 23.7002 4.9302 32.4686C5.02288 33.7757 5.3838 35.0498 5.99046 36.2112C7.31036 36.503 8.65715 36.6558 10.0088 36.6672C18.247 36.6672 22.2548 33.4865 25.3614 29.6483C22.5941 29.5847 11.0373 29.0228 11.0373 26.3085C11.0373 24.6545 15.8508 23.9759 18.1516 23.9759C21.9156 23.9759 25.8172 24.188 29.7191 24.2516C30.8747 22.6929 33.2709 18.7277 36.7273 18.7277C37.0667 18.7277 37.989 18.7277 37.989 19.0032C37.989 20.2226 36.7273 23.0958 36.4941 24.4636H54.8895L54.8259 24.453ZM29.1889 28.6941C29.8992 27.6338 30.6309 26.5736 31.4154 25.3967C31.9879 25.4603 33.2073 25.4602 33.7692 25.4602C33.2073 26.6159 32.7619 27.6656 32.3166 28.8213C31.3942 28.7577 30.0053 28.8213 29.1359 28.6941H29.1889ZM32.3697 24.2409C32.709 23.9654 34.151 21.6116 35.349 21.6539C35.389 21.7002 35.4191 21.7542 35.4374 21.8126C35.4557 21.8709 35.4617 21.9324 35.455 21.9932C35.2017 22.8057 34.8455 23.5826 34.3947 24.3045H33.5784C33.1639 24.3122 32.7493 24.291 32.3379 24.2409H32.3697ZM43.1419 31.6098V31.8854C43.1419 33.1895 36.0381 37.3458 33.96 37.3458C33.8178 37.2987 33.6954 37.2051 33.6128 37.0802C33.5301 36.9551 33.4918 36.806 33.5042 36.6566C33.6805 34.4625 34.122 32.298 34.8189 30.2102C36.0806 30.3587 42.1665 30.5495 42.8451 31.3871C43.0784 31.5143 42.951 31.6416 43.0784 31.6416L43.1419 31.6098ZM28.9239 25.4178C28.0014 26.4782 27.2487 27.5384 26.4429 28.4607C24.6192 28.3971 15.3949 27.7928 15.3949 26.3403C15.3949 25.8525 17.5791 25.7147 18.1621 25.7147C21.4172 25.5875 25.5947 25.545 28.8602 25.4602L28.9239 25.4178Z" fill="#103984"/>
</svg>
