<svg width="60" height="60" viewBox="0 0 60 60" fill="none" xmlns="http://www.w3.org/2000/svg">
<g clip-path="url(#clip0)">
<path d="M58.05 17.7002C51.9 19.2002 46.05 18.4502 40.05 16.9502C35.55 15.4502 30.9 14.1002 26.4 12.6002C19.8 10.5002 14.1 12.1502 9.15002 16.9502C5.40002 20.4002 2.85002 24.4502 0.300016 28.6502C-0.299984 29.8502 -0.299984 30.1502 1.05002 30.4502C2.70002 30.9002 4.05002 31.5002 5.55002 32.2502C9.45002 34.5002 12.9 37.3502 16.2 40.5002C18.45 42.7502 20.7 44.5502 23.4 46.5002C25.65 48.0002 28.05 48.7502 30.9 48.1502C36.15 47.1002 40.35 44.1002 44.25 40.8002C44.85 40.2002 44.7 39.7502 43.8 39.6002C43.35 39.6002 43.05 39.4502 42.3 39.4502C40.5 39.3002 38.85 38.4002 37.35 37.3502C38.1 37.2002 38.55 36.9002 39 36.7502C45.3 35.1002 51 31.6502 55.35 27.0002C57.15 24.9002 58.8 22.9502 59.4 20.1002C60.3 17.5502 60.15 17.4002 58.05 17.7002ZM38.7 40.0502C39.15 40.0502 39.45 40.0502 39.45 40.5002C39.45 40.9502 39 40.9502 38.7 41.1002C34.95 42.7502 31.5 41.8502 28.65 39.3002C26.85 37.6502 25.35 35.8502 23.7 34.0502C21.3 31.2002 18.6 28.5002 14.7 27.3002C12.9 26.7002 10.95 26.5502 9.15002 26.7002H8.70002C8.55002 26.7002 8.55002 26.5502 8.25002 26.5502C9.90002 25.5002 11.55 24.9002 13.35 24.4502C18.9 22.8002 22.8 25.5002 26.1 29.5502C28.35 32.4002 30.6 35.5502 33.45 37.9502C35.1 38.8502 36.75 39.6002 38.7 40.0502ZM53.7 22.2002C51.9 24.0002 49.8 25.5002 47.55 26.5502C44.55 28.0502 41.4 27.6002 38.55 26.1002C36.3 25.0502 34.2 23.7002 31.95 22.2002C28.05 19.8002 23.55 18.7502 18.9 19.3502C15 19.9502 11.4 21.1502 7.80002 23.2502C7.20002 23.7002 6.60002 23.8502 5.70002 24.0002C7.20002 21.7502 9.00002 19.6502 10.95 18.3002C13.65 16.0502 16.65 14.8502 20.1 14.5502C22.5 14.5502 25.2 15.0002 27.45 15.7502C31.35 16.9502 34.95 19.0502 38.85 20.4002C43.2 21.9002 47.4 22.8002 51.9 22.0502H52.5C53.55 22.0502 53.55 22.0502 53.7 22.2002Z" fill="#832B43"/>
</g>
<defs>
<clipPath id="clip0">
<rect width="60" height="60" fill="white"/>
</clipPath>
</defs>
</svg>
