<svg width="60" height="60" viewBox="0 0 60 60" fill="none" xmlns="http://www.w3.org/2000/svg">
<g clip-path="url(#clip0)">
<path d="M15.3 14.2498C9.9 14.2498 6 15.2998 2.7 16.6498L5.1 23.6998C8.1 22.6498 10.5 22.0498 14.1 22.0498C18.45 22.0498 21.15 24.2998 21.15 28.0498V28.6498C18.9 27.8998 16.5 27.2998 13.2 27.2998C5.4 26.9998 0 30.2998 0 37.3498C0 43.6498 4.95 47.0998 11.25 47.0998C15.9 47.0998 18.9 45.7498 21 43.0498V46.6498H29.7V28.0498C29.7 23.9998 28.65 20.3998 26.1 17.9998C24 15.5998 20.4 14.2498 15.3 14.2498ZM21 35.2498C21 38.5498 18.3 40.9498 13.65 40.6498C10.65 40.6498 8.7 39.2998 8.7 36.5998C8.7 33.5998 11.1 32.2498 15.3 32.2498C17.55 32.2498 19.65 32.8498 21.3 33.5998V35.2498H21ZM43.05 4.0498L39 10.0498C47.25 15.7498 50.7 21.2998 50.7 29.6998C50.7 38.0998 47.1 43.6498 39 49.3498L43.05 55.9498C54.3 49.6498 60 41.3998 60 29.9998C60 18.2998 54.3 10.0498 43.05 4.0498Z" fill="#7A66A8"/>
</g>
<defs>
<clipPath id="clip0">
<rect width="60" height="60" fill="white"/>
</clipPath>
</defs>
</svg>
