<svg width="44" height="32" viewBox="0 0 44 32" fill="none" xmlns="http://www.w3.org/2000/svg">
<path d="M23.5 16C24.3284 16 25 15.3284 25 14.5C25 13.6716 24.3284 13 23.5 13C22.6716 13 22 13.6716 22 14.5C22 15.3284 22.6716 16 23.5 16Z" stroke="white" stroke-width="2" stroke-linecap="round" stroke-linejoin="round"/>
<path d="M22 25C26.9706 25 31 20.9706 31 16C31 11.0294 26.9706 7 22 7C17.0294 7 13 11.0294 13 16C13 20.9706 17.0294 25 22 25Z" stroke="white" stroke-width="2" stroke-linecap="round" stroke-linejoin="round"/>
<path d="M1 16C1 16 8.5 1 22 1C35.5 1 43 16 43 16C43 16 35.5 31 22 31C8.5 31 1 16 1 16Z" stroke="white" stroke-width="2" stroke-linecap="round" stroke-linejoin="round"/>
</svg>
