<svg width="13" height="13" viewBox="0 0 13 13" fill="none" xmlns="http://www.w3.org/2000/svg">
<path d="M9.34467 6.5L5.60984 2.76517C5.46339 2.61872 5.46339 2.38128 5.60984 2.23484C5.75628 2.08839 5.99372 2.08839 6.14017 2.23484L10.1402 6.23484C10.2866 6.38128 10.2866 6.61872 10.1402 6.76517L6.14016 10.7652C5.99372 10.9116 5.75628 10.9116 5.60983 10.7652C5.46339 10.6187 5.46339 10.3813 5.60983 10.2348L9.34467 6.5Z" fill="#E38149"/>
<path d="M6.34467 6.5L2.60984 2.76517C2.46339 2.61872 2.46339 2.38128 2.60984 2.23484C2.75628 2.08839 2.99372 2.08839 3.14017 2.23484L7.14017 6.23484C7.28661 6.38128 7.28661 6.61872 7.14017 6.76517L3.14016 10.7652C2.99372 10.9116 2.75628 10.9116 2.60983 10.7652C2.46339 10.6187 2.46339 10.3813 2.60983 10.2348L6.34467 6.5Z" fill="#E38149"/>
</svg>
