<svg width="50" height="51" viewBox="0 0 50 51" fill="none" xmlns="http://www.w3.org/2000/svg">
<g clip-path="url(#clip0)">
<path d="M25.0007 0.835815C14.4323 0.835815 5.83398 9.88249 5.83398 21.0025C5.83398 31.9 23.6531 49.8334 24.4115 50.5926C24.574 50.7542 24.7874 50.8359 25.0007 50.8359C25.2141 50.8359 25.4273 50.7543 25.5898 50.5918C26.3481 49.8335 44.1674 31.9001 44.1674 21.0026C44.1674 9.88249 35.569 0.835815 25.0007 0.835815ZM25.0007 48.8092C21.8849 45.5775 7.50068 30.1566 7.50068 21.0025C7.50068 10.8016 15.3516 2.50251 25.0007 2.50251C34.6498 2.50251 42.5007 10.8016 42.5007 21.0025C42.5007 30.1525 28.1157 45.5766 25.0007 48.8092Z" fill="#E38149"/>
<path d="M25 5.00256C16.7292 5.00256 10 11.7318 10 20.0026C10 28.2734 16.7292 35.0026 25 35.0026C33.2708 35.0026 40 28.2734 40 20.0026C40 11.7318 33.2708 5.00256 25 5.00256ZM25 33.3359C17.6475 33.3359 11.6667 27.3542 11.6667 20.0026C11.6667 12.6509 17.6475 6.66917 25 6.66917C32.3525 6.66917 38.3333 12.6508 38.3333 20.0025C38.3333 27.3541 32.3525 33.3359 25 33.3359Z" fill="#E38149"/>
<path d="M24.9993 41.6691C24.5394 41.6691 24.166 42.0424 24.166 42.5024V50.0024C24.166 50.4623 24.5394 50.8357 24.9993 50.8357C25.4593 50.8357 25.8326 50.4623 25.8326 50.0024V42.5024C25.8326 42.0424 25.4593 41.6691 24.9993 41.6691Z" fill="#E38149"/>
<path d="M26.6666 14.1692H23.3333C22.8733 14.1692 22.5 14.5425 22.5 15.0025V18.3359C22.5 18.7958 22.8733 19.1692 23.3333 19.1692H26.6666C28.0449 19.1692 29.1666 18.0475 29.1666 16.6692C29.1666 15.2909 28.0449 14.1692 26.6666 14.1692ZM26.6666 17.5026H24.1666V15.8359H26.6666C27.1266 15.8359 27.4999 16.21 27.4999 16.6692C27.4999 17.1284 27.1266 17.5026 26.6666 17.5026Z" fill="#E38149"/>
<path d="M26.666 10.8359H19.9993C19.5394 10.8359 19.166 11.2093 19.166 11.6692V28.3359C19.166 28.7959 19.5394 29.1692 19.9993 29.1692H23.3326C23.7926 29.1692 24.1659 28.7959 24.1659 28.3359V22.5026H26.6659C29.8826 22.5026 32.4992 19.8859 32.4992 16.6693C32.4992 13.4527 29.8826 10.8359 26.666 10.8359ZM26.666 20.8359H23.3327C22.8728 20.8359 22.4994 21.2093 22.4994 21.6692V27.5025H20.8327V12.5025H26.666C28.9635 12.5025 30.8327 14.3717 30.8327 16.6692C30.8326 18.9668 28.9635 20.8359 26.666 20.8359Z" fill="#E38149"/>
<path d="M49.1666 49.1691H45.8333C45.3733 49.1691 45 49.5424 45 50.0024C45 50.4623 45.3733 50.8357 45.8333 50.8357H49.1666C49.6266 50.8357 49.9999 50.4623 49.9999 50.0024C49.9999 49.5424 49.6266 49.1691 49.1666 49.1691Z" fill="#E38149"/>
<path d="M20 49.1691H0.833301C0.37334 49.1691 0 49.5424 0 50.0023C0 50.4623 0.37334 50.8357 0.833301 50.8357H20C20.46 50.8357 20.8333 50.4624 20.8333 50.0024C20.8333 49.5425 20.46 49.1691 20 49.1691Z" fill="#E38149"/>
<path d="M39.9993 49.1691H29.9993C29.5394 49.1691 29.166 49.5424 29.166 50.0023C29.166 50.4623 29.5394 50.8357 29.9993 50.8357H39.9993C40.4593 50.8357 40.8326 50.4624 40.8326 50.0024C40.8326 49.5425 40.4593 49.1691 39.9993 49.1691Z" fill="#E38149"/>
</g>
<defs>
<clipPath id="clip0">
<rect width="50" height="50" fill="white" transform="translate(0 0.835815)"/>
</clipPath>
</defs>
</svg>
