<svg width="40" height="40" viewBox="0 0 40 40" fill="none" xmlns="http://www.w3.org/2000/svg">
<path d="M20.1159 0.000159166C28.423 0.0615333 35.8306 5.23605 38.7351 13.0077C41.6399 20.7802 39.4374 29.5362 33.1994 35.0158C26.9624 40.4945 17.9859 41.5607 10.6358 37.696L10.5442 37.6639C10.5299 37.6556 10.5276 37.6484 10.5245 37.6389L9.15942 36.8664C8.8814 36.7526 8.57331 36.7342 8.38521 36.7818C6.96621 37.2919 5.51596 37.7109 4.04335 38.0361L3.77342 38.0686C2.15231 38.1045 1.33551 37.0527 1.33551 35.5219L1.3746 35.1939C1.74273 33.6714 2.20408 32.1729 2.72917 30.7853C2.81061 30.5226 2.7835 30.2384 2.64295 29.975L2.27531 29.2583C-0.974235 23.0453 -0.729178 15.5872 2.92119 9.6002C6.57108 3.61401 13.0927 -0.027741 20.1159 0.000159166ZM20.0967 2.78926L19.535 2.79805C13.7099 2.96472 8.34676 6.06241 5.30392 11.053C2.16335 16.2038 1.95254 22.6198 4.75325 27.9747L5.1151 28.6804C5.59636 29.581 5.69705 30.6365 5.36778 31.6902C4.85608 33.0493 4.42839 34.4384 4.08712 35.8498L4.276 35.114L5.06546 34.9082C5.33645 34.8335 5.60811 34.7549 5.88119 34.6721L6.70543 34.411L7.54267 34.1234C8.42708 33.8799 9.36739 33.9362 10.2937 34.3181C10.4882 34.4118 10.7294 34.5419 11.0335 34.7138L11.8782 35.1985C11.8925 35.2024 11.905 35.2058 11.9146 35.2084L11.8899 35.2052L12.4654 35.4935C18.5164 38.4153 25.7253 37.5561 30.9173 33.2932L31.3577 32.9192C36.7252 28.2042 38.62 20.6714 36.121 13.9847C33.6217 7.29723 27.2461 2.84364 20.0967 2.78926ZM11.2319 17.7191C12.4921 17.7191 13.5146 18.74 13.5146 20.0004C13.5146 21.2608 12.4921 22.2817 11.2319 22.2817C9.97171 22.2817 8.9492 21.2608 8.9492 20.0004C8.9492 18.74 9.97171 17.7191 11.2319 17.7191ZM20.1057 17.7191C21.3659 17.7191 22.3884 18.74 22.3884 20.0004C22.3884 21.2608 21.3659 22.2817 20.1057 22.2817C18.8455 22.2817 17.823 21.2608 17.823 20.0004C17.823 18.74 18.8455 17.7191 20.1057 17.7191ZM28.9794 17.7191C30.2396 17.7191 31.2622 18.74 31.2622 20.0004C31.2622 21.2608 30.2396 22.2817 28.9794 22.2817C27.7192 22.2817 26.6967 21.2608 26.6967 20.0004C26.6967 18.74 27.7192 17.7191 28.9794 17.7191Z" fill="#E38149"/>
</svg>
