<svg width="50" height="51" viewBox="0 0 50 51" fill="none" xmlns="http://www.w3.org/2000/svg">
<g clip-path="url(#clip0)">
<path d="M46.3868 6.47388H9.33008C7.33779 6.47388 5.71689 8.09478 5.71689 10.0871V11.9432H3.61318C1.6209 11.9432 0 13.5641 0 15.5564V41.585C0 43.5772 1.6209 45.1981 3.61318 45.1981H40.6699C42.6622 45.1981 44.2831 43.5772 44.2831 41.585V39.7288H46.3868C48.3791 39.7288 50 38.1079 50 36.1157V10.0871C50 8.09478 48.3791 6.47388 46.3868 6.47388ZM42.33 41.585C42.33 42.5003 41.5853 43.245 40.6699 43.245H3.61318C2.69785 43.245 1.95312 42.5003 1.95312 41.585V15.5564C1.95312 14.6411 2.69775 13.8963 3.61318 13.8963H40.6699C41.5854 13.8963 42.33 14.6411 42.33 15.5564V41.585ZM48.0469 36.1157C48.0469 37.031 47.3022 37.7756 46.3868 37.7756H44.2831V15.5564C44.2831 13.5641 42.6622 11.9432 40.6699 11.9432H7.67002V10.0871C7.67002 9.17173 8.41465 8.427 9.33008 8.427H46.3868C47.3022 8.427 48.0469 9.17173 48.0469 10.0871V36.1157Z" fill="#E38149"/>
<path d="M13.4893 18.9506C8.18467 18.9506 3.86914 23.2661 3.86914 28.5707C3.86914 31.9974 5.71445 35.1916 8.68486 36.9068C8.68525 36.9071 8.68564 36.9072 8.68603 36.9075C10.1406 37.7471 11.8016 38.1909 13.4893 38.1909C15.1775 38.1909 16.8389 37.7469 18.2938 36.9069C21.2642 35.1917 23.1095 31.9976 23.1095 28.5708C23.1094 23.2662 18.7938 18.9506 13.4893 18.9506ZM16.8288 35.474C15.7933 35.975 14.6495 36.2377 13.4893 36.2377C12.329 36.2377 11.1853 35.975 10.1497 35.474V34.2291C10.1497 34.1171 10.2409 34.0259 10.353 34.0259H16.6256C16.7377 34.0259 16.8288 34.1171 16.8288 34.2291V35.474ZM18.7791 34.1183C18.7212 32.9806 17.7773 32.0727 16.6255 32.0727H10.3529C9.20098 32.0727 8.25723 32.9805 8.19932 34.1183C6.70342 32.6868 5.82217 30.6843 5.82217 28.5707C5.82217 24.3431 9.26162 20.9037 13.4892 20.9037C17.7168 20.9037 21.1562 24.3431 21.1562 28.5707C21.1563 30.6844 20.2751 32.6869 18.7791 34.1183Z" fill="#E38149"/>
<path d="M13.4904 22.188C11.0004 22.188 8.97461 24.2138 8.97461 26.7038C8.97461 29.1938 11.0004 31.2196 13.4904 31.2196C15.9805 31.2196 18.0063 29.1938 18.0063 26.7038C18.0063 24.2139 15.9805 22.188 13.4904 22.188ZM13.4904 29.2666C12.0773 29.2666 10.9277 28.117 10.9277 26.7039C10.9277 25.2908 12.0773 24.1412 13.4904 24.1412C14.9035 24.1412 16.0531 25.2908 16.0531 26.7039C16.0531 28.1169 14.9035 29.2666 13.4904 29.2666Z" fill="#E38149"/>
<path d="M39.4352 22.3225C39.0282 22.3225 38.653 22.0585 38.5166 21.6749C38.3804 21.2915 38.4994 20.8498 38.8157 20.5913C39.1363 20.3292 39.5987 20.2997 39.9504 20.5173C40.2996 20.7332 40.4781 21.1586 40.3879 21.5591C40.2888 21.9993 39.8872 22.3225 39.4352 22.3225Z" fill="#E38149"/>
<path d="M35.2751 22.3223H26.873C26.3337 22.3223 25.8965 21.8851 25.8965 21.3457C25.8965 20.8064 26.3337 20.3691 26.873 20.3691H35.2751C35.8145 20.3691 36.2517 20.8064 36.2517 21.3457C36.2517 21.8851 35.8145 22.3223 35.2751 22.3223Z" fill="#E38149"/>
<path d="M39.4369 27.1388H26.873C26.3337 27.1388 25.8965 26.7015 25.8965 26.1622C25.8965 25.623 26.3337 25.1857 26.873 25.1857H39.437C39.9764 25.1857 40.4136 25.623 40.4136 26.1622C40.4136 26.7015 39.9763 27.1388 39.4369 27.1388Z" fill="#E38149"/>
<path d="M39.4369 31.9553H26.873C26.3337 31.9553 25.8965 31.518 25.8965 30.9788C25.8965 30.4395 26.3337 30.0022 26.873 30.0022H39.437C39.9764 30.0022 40.4136 30.4395 40.4136 30.9788C40.4135 31.518 39.9763 31.9553 39.4369 31.9553Z" fill="#E38149"/>
<path d="M39.4355 36.7717H32.9902C32.4509 36.7717 32.0137 36.3344 32.0137 35.7952C32.0137 35.2558 32.4509 34.8186 32.9902 34.8186H39.4355C39.9749 34.8186 40.4121 35.2558 40.4121 35.7952C40.4121 36.3345 39.9749 36.7717 39.4355 36.7717Z" fill="#E38149"/>
</g>
<defs>
<clipPath id="clip0">
<rect width="50" height="50" fill="white" transform="translate(0 0.835815)"/>
</clipPath>
</defs>
</svg>
