<svg width="30" height="28" viewBox="0 0 30 28" fill="none" xmlns="http://www.w3.org/2000/svg">
<path d="M23.2617 12.5351H20.6063C20.013 12.5351 19.4823 12.1813 19.2541 11.6337L16.9254 6.04477C16.7752 5.68431 16.4052 5.46599 16.017 5.50929C14.8417 5.63983 13.686 5.30497 12.7626 4.56628C11.8393 3.82759 11.2588 2.77354 11.1282 1.59827C11.0927 1.27817 10.8848 1.00313 10.5866 0.881494C10.2883 0.759853 9.94744 0.811123 9.69812 1.01509L5.29539 4.61731C4.55306 5.22464 3.93355 5.95378 3.45402 6.78434L0.35441 12.1532C0.00226152 12.7631 -0.0913127 13.4737 0.0909725 14.154C0.273258 14.8342 0.709547 15.4028 1.31951 15.755L14.0053 23.0792C14.6725 23.4644 15.4323 23.668 16.2026 23.668H27.3633C28.8171 23.668 30 22.4851 30 21.0312V19.2734C30 15.5579 26.9772 12.5351 23.2617 12.5351ZM28.1629 18.3945H24.1406V14.3722C26.1834 14.7376 27.7975 16.3518 28.1629 18.3945ZM6.40849 5.9778L9.72754 3.26227C10.1124 4.30489 10.7744 5.22675 11.6646 5.9389C12.772 6.82483 14.1184 7.29505 15.5162 7.29499C15.5248 7.29499 15.5334 7.29499 15.542 7.29493L16.1175 8.6761L14.5028 9.60833C14.0825 9.85102 13.9384 10.3886 14.1811 10.8089C14.3439 11.0909 14.6393 11.2485 14.9431 11.2485C15.0921 11.2485 15.2433 11.2105 15.3817 11.1306L16.7992 10.3122L17.481 11.9484L16.2606 12.6529C15.8403 12.8956 15.6962 13.4332 15.9389 13.8535C16.1017 14.1355 16.3971 14.2931 16.7009 14.2931C16.85 14.2931 17.0011 14.2551 17.1395 14.1752L18.4177 13.4372C19.0009 13.9771 19.7756 14.293 20.6063 14.293H22.3828V18.3945H16.4382L7.70798 13.3542C8.19742 12.1364 8.28367 10.7988 7.94388 9.50772C7.61787 8.26876 6.92945 7.18524 5.96851 6.3753C6.10843 6.23649 6.2548 6.10354 6.40849 5.9778ZM4.90673 7.7839C6.21666 8.94657 6.71371 10.8029 6.1624 12.4618L3.19503 10.7486L4.90673 7.7839ZM27.3633 21.9101H16.2026C15.7404 21.9101 15.2846 21.788 14.8843 21.5569L2.19841 14.2327C1.99509 14.1153 1.84966 13.9257 1.7889 13.699C1.72814 13.4722 1.75931 13.2353 1.87673 13.0321L2.31619 12.2709L15.7633 20.0346C15.8969 20.1118 16.0485 20.1524 16.2027 20.1524H28.2422V21.0313C28.2422 21.5159 27.8479 21.9101 27.3633 21.9101Z" fill="#E38149"/>
<path d="M4.98047 25.4258H0.878906C0.393516 25.4258 0 25.8193 0 26.3047C0 26.7901 0.393516 27.1836 0.878906 27.1836H4.98047C5.46586 27.1836 5.85938 26.7901 5.85938 26.3047C5.85938 25.8193 5.46586 25.4258 4.98047 25.4258Z" fill="#E38149"/>
<path d="M23.2617 25.4258H9.66797C9.18258 25.4258 8.78906 25.8193 8.78906 26.3047C8.78906 26.7901 9.18258 27.1836 9.66797 27.1836H23.2617C23.7471 27.1836 24.1406 26.7901 24.1406 26.3047C24.1406 25.8193 23.7471 25.4258 23.2617 25.4258Z" fill="#E38149"/>
<path d="M7.32617 21.9102H0.880859C0.395469 21.9102 0.00195312 22.3037 0.00195312 22.7891C0.00195312 23.2745 0.395469 23.668 0.880859 23.668H7.32617C7.81156 23.668 8.20508 23.2745 8.20508 22.7891C8.20508 22.3037 7.81162 21.9102 7.32617 21.9102Z" fill="#E38149"/>
<path d="M29.1211 25.4258H26.7773C26.292 25.4258 25.8984 25.8193 25.8984 26.3047C25.8984 26.7901 26.292 27.1836 26.7773 27.1836H29.1211C29.6065 27.1836 30 26.7901 30 26.3047C30 25.8193 29.6065 25.4258 29.1211 25.4258Z" fill="#E38149"/>
</svg>
