<svg width="24" height="24" viewBox="0 0 24 24" fill="none" xmlns="http://www.w3.org/2000/svg">
<path d="M21.0536 20.0462C21.3319 20.3244 21.3319 20.7756 21.0536 21.0538C20.7754 21.3321 20.3242 21.3321 20.046 21.0538L16.626 17.6338C16.3477 17.3556 16.3477 16.9044 16.626 16.6262C16.9042 16.3479 17.3554 16.3479 17.6336 16.6262L21.0536 20.0462ZM10.2898 17.8425C6.11867 17.8425 2.7373 14.4611 2.7373 10.29C2.7373 6.11887 6.11867 2.7375 10.2898 2.7375C14.4609 2.7375 17.8423 6.11887 17.8423 10.29C17.8423 14.4611 14.4609 17.8425 10.2898 17.8425ZM10.2898 16.4175C13.6739 16.4175 16.4173 13.6741 16.4173 10.29C16.4173 6.90587 13.6739 4.1625 10.2898 4.1625C6.90568 4.1625 4.1623 6.90587 4.1623 10.29C4.1623 13.6741 6.90568 16.4175 10.2898 16.4175ZM6.7748 9.72C6.7748 9.98233 6.56214 10.195 6.2998 10.195C6.03747 10.195 5.8248 9.98233 5.8248 9.72C5.8248 7.56885 7.56866 5.825 9.7198 5.825C9.98214 5.825 10.1948 6.03766 10.1948 6.3C10.1948 6.56233 9.98214 6.775 9.7198 6.775C8.09333 6.775 6.7748 8.09352 6.7748 9.72Z" fill="#2B2A2F"/>
</svg>
