<svg width="24" height="25" viewBox="0 0 24 25" fill="none" xmlns="http://www.w3.org/2000/svg">
<path fill-rule="evenodd" clip-rule="evenodd" d="M2 12.3555C2 8.1641 2 6.06841 3.05041 4.62265C3.38964 4.15573 3.80026 3.74511 4.26718 3.40588C5.71294 2.35547 7.80863 2.35547 12 2.35547C16.1914 2.35547 18.2871 2.35547 19.7328 3.40588C20.1997 3.74511 20.6104 4.15573 20.9496 4.62265C22 6.06841 22 8.1641 22 12.3555C22 16.5468 22 18.6425 20.9496 20.0883C20.6104 20.5552 20.1997 20.9658 19.7328 21.3051C18.2871 22.3555 16.1914 22.3555 12 22.3555C7.80863 22.3555 5.71294 22.3555 4.26718 21.3051C3.80026 20.9658 3.38964 20.5552 3.05041 20.0883C2 18.6425 2 16.5468 2 12.3555ZM12 7.06135C9.07632 7.06135 6.70588 9.43179 6.70588 12.3555C6.70588 15.2791 9.07632 17.6496 12 17.6496C14.9237 17.6496 17.2941 15.2791 17.2941 12.3555C17.2941 9.43179 14.9237 7.06135 12 7.06135ZM12 15.6643C10.1762 15.6643 8.69118 14.1793 8.69118 12.3555C8.69118 10.5303 10.1762 9.04665 12 9.04665C13.8238 9.04665 15.3088 10.5303 15.3088 12.3555C15.3088 14.1793 13.8238 15.6643 12 15.6643ZM18.3966 6.6643C18.3966 7.0539 18.0808 7.36974 17.6912 7.36974C17.3016 7.36974 16.9857 7.0539 16.9857 6.6643C16.9857 6.2747 17.3016 5.95886 17.6912 5.95886C18.0808 5.95886 18.3966 6.2747 18.3966 6.6643Z" fill="#CAA895"/>
</svg>
