<svg width="24" height="25" viewBox="0 0 24 25" fill="none" xmlns="http://www.w3.org/2000/svg">
<path fill-rule="evenodd" clip-rule="evenodd" d="M21.3903 4.46905C22.4182 4.74591 23.2288 5.55633 23.5055 6.58446C24.0197 8.46238 23.9999 12.3768 23.9999 12.3768C23.9999 12.3768 23.9999 16.2712 23.5057 18.1493C23.2288 19.1773 22.4184 19.9879 21.3903 20.2646C19.5122 20.7589 12 20.7589 12 20.7589C12 20.7589 4.50731 20.7589 2.60961 20.245C1.58148 19.9681 0.771054 19.1575 0.4942 18.1296C0 16.2712 0 12.357 0 12.357C0 12.357 0 8.46238 0.4942 6.58446C0.770871 5.55651 1.60125 4.72613 2.60943 4.44946C4.48753 3.95508 11.9998 3.95508 11.9998 3.95508C11.9998 3.95508 19.5122 3.95508 21.3903 4.46905ZM15.8549 12.357L9.60788 15.9551V8.75902L15.8549 12.357Z" fill="#CAA895"/>
</svg>
