<svg width="24" height="25" viewBox="0 0 24 25" fill="none" xmlns="http://www.w3.org/2000/svg">
<path d="M17.5628 1.36005L14.7856 1.35547C11.6654 1.35547 9.64903 3.48056 9.64903 6.7697V9.26602H6.85662C6.61532 9.26602 6.41992 9.46697 6.41992 9.71484V13.3317C6.41992 13.5796 6.61554 13.7803 6.85662 13.7803H9.64903V22.9069C9.64903 23.1547 9.84443 23.3555 10.0857 23.3555H13.729C13.9703 23.3555 14.1657 23.1545 14.1657 22.9069V13.7803H17.4307C17.672 13.7803 17.8674 13.5796 17.8674 13.3317L17.8688 9.71484C17.8688 9.59583 17.8226 9.48185 17.7409 9.39762C17.6591 9.3134 17.5477 9.26602 17.4318 9.26602H14.1657V7.14986C14.1657 6.13274 14.4017 5.61641 15.6915 5.61641L17.5624 5.61572C17.8035 5.61572 17.9989 5.41477 17.9989 5.16713V1.80864C17.9989 1.56123 17.8037 1.3605 17.5628 1.36005Z" fill="#CAA895"/>
</svg>
